<?xml version="1.0" encoding="UTF-8" standalone="no"?>
<svg width="300px" height="300px" viewBox="0 0 300 300" version="1.1" xmlns="http://www.w3.org/2000/svg" xmlns:xlink="http://www.w3.org/1999/xlink" xmlns:sketch="http://www.bohemiancoding.com/sketch/ns">
    <!-- Generator: Sketch 3.3.3 (12072) - http://www.bohemiancoding.com/sketch -->
    <title>Group Copy 9 + Rectangle 571 + Intermediate Term Ta + 46%</title>
    <desc>Created with Sketch.</desc>
    <defs></defs>
    <g id="Robo-Wizard" stroke="none" stroke-width="1" fill="none" fill-rule="evenodd" sketch:type="MSPage">
        <g id="Results_Equity_Open" sketch:type="MSArtboardGroup" transform="translate(-249.000000, -248.000000)">
            <g id="Group-Copy-9-+-Rectangle-571-+-Intermediate-Term-Ta-+-46%" sketch:type="MSLayerGroup" transform="translate(249.000000, 248.000000)">
                <g id="Group-Copy-9" sketch:type="MSShapeGroup">
                    <path d="M149.796552,150 L0.0655172414,150 C0.0655172414,132.758621 2.28275862,119.460345 7.39482759,103.731034 L149.796552,150" id="Fill-4" fill="#98D2C0"></path>
                    <path d="M149.796552,150 L61.7862069,271.134483 C21.6465517,241.97069 0.0655172414,198.275862 0.0655172414,150 L149.796552,150" id="Fill-5" fill="#7BC6AE"></path>
                    <path d="M149.796552,150.12931 L131.55,298.744828 C105.282759,295.518966 83.1948276,286.818966 61.7862069,271.265517 L149.796552,150.12931" id="Fill-6" fill="#6CC0A5"></path>
                    <path d="M149.796552,150.12931 L205.886207,288.956897 C181.351724,298.87069 157.812069,301.968966 131.55,298.744828 L149.796552,150.12931" id="Fill-7" fill="#61AD94"></path>
                    <path d="M149.796552,150.12931 L292.2,196.4 C277.887931,240.441379 248.822414,271.610345 205.886207,288.956897 L149.796552,150.12931" id="Fill-8" fill="#4A8672"></path>
                    <path d="M149.796552,150.12931 L275.37069,68.5810345 C300.593103,107.418966 306.508621,152.356897 292.2,196.4 L149.796552,150.12931" id="Fill-9" fill="#336150"></path>
                    <path d="M150,150.12931 L150,0.398275862 C203.448276,0.398275862 246.75,24.1948276 275.574138,68.5810345 L150,150.12931" id="Fill-10" fill="#1C3B2E"></path>
                    <g id="Imported-Layers-+-Tap-the-slices-of-th" transform="translate(7.000000, 0.000000)">
                        <g id="Imported-Layers">
                            <path d="M143,150.12931 L122.160345,1.85689655 C128.713793,0.936206897 136.103448,0.398275862 143,0.398275862 L143,150.12931" id="Fill-1" fill="#ADA4DF"></path>
                            <path d="M142.796552,150.12931 L70.2051724,19.1724138 C87.5637931,9.55 102.305172,4.61896552 121.956897,1.85689655 L142.796552,150.12931" id="Fill-2" fill="#4D96C0"></path>
                            <path d="M142.796552,150.12931 L0.394827586,103.860345 C12.6586207,66.1103448 35.4896552,38.4155172 70.2051724,19.1724138 L142.796552,150.12931" id="Fill-3" fill="#357CA6"></path>
                            <path d="M248.222414,151.558621 C248.222414,209.686207 201.101724,256.805172 142.975862,256.805172 C84.85,256.805172 37.7310345,209.686207 37.7310345,151.558621 C37.7310345,93.4327586 84.85,46.312069 142.975862,46.312069 C201.101724,46.312069 248.222414,93.4327586 248.222414,151.558621" id="Fill-11" fill="#FFFFFF"></path>
                        </g>
                    </g>
                </g>
                <g id="Rectangle-571-+-Intermediate-Term-Ta-+-46%" transform="translate(72.000000, 50.000000)">
                    <rect id="Rectangle-571" fill="#1C3B2E" sketch:type="MSShapeGroup" transform="translate(129.496744, 9.500000) rotate(-16.000000) translate(-129.496744, -9.500000) " x="121.996744" y="2" width="15" height="15"></rect>
                    <g id="Intermediate-Term-Ta-+-46%" transform="translate(0.000000, 61.000000)" font-family="Helvetica" fill="#4A4A4A" sketch:alignment="middle" sketch:type="MSTextLayer">
                        <text id="Large-Cap-Core" font-size="15" font-weight="normal">
                            <tspan x="25.0972806" y="74">Large Cap Core</tspan>
                        </text>
                        <text id="16%" font-size="50" font-weight="260" line-spacing="60" letter-spacing="-2.21801019">
                            <tspan x="31.3020153" y="49">16%</tspan>
                        </text>
                    </g>
                </g>
            </g>
        </g>
    </g>
</svg>