<?xml version="1.0" encoding="UTF-8" standalone="no"?>
<svg width="902px" height="483px" viewBox="0 0 902 483" version="1.1" xmlns="http://www.w3.org/2000/svg" xmlns:xlink="http://www.w3.org/1999/xlink" xmlns:sketch="http://www.bohemiancoding.com/sketch/ns">
    <!-- Generator: Sketch 3.3.3 (12072) - http://www.bohemiancoding.com/sketch -->
    <title>Group</title>
    <desc>Created with Sketch.</desc>
    <defs>
        <ellipse id="path-1" cx="61.5" cy="89.5" rx="7.5" ry="7.5"></ellipse>
        <ellipse id="path-2" cx="61.5" cy="89.5" rx="7.5" ry="7.5"></ellipse>
        <ellipse id="path-3" cx="61.5" cy="72.5" rx="7.5" ry="7.5"></ellipse>
    </defs>
    <g id="Robo-Wizard_RP2" stroke="none" stroke-width="1" fill="none" fill-rule="evenodd" sketch:type="MSPage">
        <g id="9_Results_Desktop_Performance" sketch:type="MSArtboardGroup" transform="translate(-249.000000, -208.000000)">
            <g id="Group" sketch:type="MSLayerGroup" transform="translate(250.000000, 205.000000)">
                <text id="Past-Performance" sketch:type="MSTextLayer" font-family="Helvetica" font-size="13" font-weight="normal" fill="#000000">
                    <tspan x="0" y="13">Past Performance</tspan>
                </text>
                <text id="Potential-Future-Per" sketch:type="MSTextLayer" font-family="Helvetica" font-size="13" font-weight="normal" fill="#000000">
                    <tspan x="0" y="246">Potential Future Performance</tspan>
                </text>
                <text id="The-underlying-asset" sketch:type="MSTextLayer" font-family="Helvetica Neue" font-size="12" font-weight="normal" fill="#808080">
                    <tspan x="0" y="456">The underlying asset class returns utilized are the geometric expected returns from Morningstar’s 2015 Capital Market Assumptions. These assumptions are </tspan>
                    <tspan x="0" y="470">calculated by using historical return and fundamental data from recognized market indices which serve as proxies for each respective asset class. </tspan>
                    <tspan x="0" y="484" text-decoration="underline">Read More</tspan>
                </text>
                <rect id="Bar" fill="#A9A9A9" sketch:type="MSShapeGroup" x="0" y="122" width="860" height="1"></rect>
                <rect id="Bar-Copy" fill="#444444" sketch:type="MSShapeGroup" x="0" y="178" width="860" height="1"></rect>
                <rect id="Bar-Copy-3" fill="#444444" sketch:type="MSShapeGroup" x="0" y="413" width="860" height="1"></rect>
                <path d="M0,96.4439109 L7.43571092,98.9861943 L16.2095599,97.6848191 L33.5462635,115.375037 L42.2130169,111.780573 L51.1163397,112.993473 L59.978103,106.184551 L68.6464548,108.376111 L84.4726306,106.506903 L94.173576,104.673229 L102.773195,106.844847 L110.837335,104.697524 L119.398592,100.168636 L127.891115,101.293062 L135.47892,100.833647 L140.175143,100.97071 L148.688446,102.437431 L156.04128,105.543834 L162.292787,109.034957 L171.974551,106.907214 L179.493623,108.623768 L185.291173,109.430555 L189.557415,109.938922 L196.95021,113.297333 L205.744838,110.710174 L214.606602,114.941003 L221.571014,113.566745 L225.858036,113.405388 L229.540847,113.498214 L232.686581,114.099406 L237.497892,118.164527 L244.35361,121.42286 L249.93537,124.127139 L257.609491,126.791894 L263.306339,131.206562 L265.438661,133.866603 L274.556175,133.935135 L291.71705,140 L301.096708,137.876971 L305.625095,132.673646 L311.964517,127.103731 L316.81419,123.347909 C316.81419,123.347909 322.571779,122.240888 322.571779,121.831874 C322.571779,121.42286 326.321724,121.303927 326.321724,121.303927 L342.059985,124.874097 L347.836755,122.621982 L352.598515,120.167173 L360.809712,121.252437 L365.144687,118.802342 L369.478064,116.431294 L375.497797,117.043002 L380.951681,117.272891 L386.923461,116.402286 L395.268928,114.519661 L404.862778,114.612487 L412.041381,113.644705 L420.298934,118.189184 L427.389623,117.685531 L430.644051,118.125003 L437.520549,122.311958 L447.074438,107.560259 L455.781153,108.939231 L464.059484,106.899962 L481.503284,98.6087266 L489.733662,99.4394456 L504.501669,93.6429051 L515.497353,87.5298139 L523.796465,90.4059655 L528.236937,90.8171551 L541.171531,91.1641643 L550.034893,95.531694 L558.78956,87.1037576 L563.122937,78.5626897 L568.854951,70.0002283 L575.926459,65.4024469 L584.097695,65.862225 L601.929916,59 L610.422439,63.4802987 L619.392896,62.5857619 L627.087797,62.4001101 L634.694783,63.3874728 L644.718614,62.3754533 L652.929811,72.2690231 L660.691846,70.8023018 L670.002772,70.2496978 C670.002772,70.2496978 678.904496,73.2719777 678.904496,73.2719777 C678.904496,73.2719777 685.976004,73.1305632 685.976004,72.6997932 C685.976004,72.2690231 691.389928,68.9044479 691.389928,68.9044479 L696.503344,65.4575622 L704.04959,67.3307593 L713.039228,65.3843168 L721.619666,60.367006 L730.978545,67.8561682 L734.690127,78.0648384 L738.507207,86.3713035 L747.17396,83.5984932 L755.799154,88.1999006 L764.963023,98.9212887 C764.963023,98.9212887 791.073575,84.6474981 791.073576,83.6264135 C791.073576,82.6053289 799.244812,86.6399909 799.244812,86.6399909 L807.806068,70.9719991 C807.806068,70.9719991 824.664837,74.1284414 824.664838,76.9150305 C824.664838,79.7016196 833.673658,74.2379469 833.673658,74.2379469 C833.673658,74.2379469 850.922447,79.543163 850.922447,80.1167978 C850.922447,80.6904327 860,73.3764068 860,73.3764068" id="Sparkline-Copy" stroke="#444444" stroke-width="0.5" sketch:type="MSShapeGroup"></path>
                <path d="M0,303.443911 L7.43571092,305.986194 L16.2095599,304.684819 L33.5462635,322.375037 L42.2130169,318.780573 L51.1163397,319.993473 L59.978103,313.184551 L68.6464548,315.376111 L84.4726306,313.506903 L94.173576,311.673229 L102.773195,313.844847 L110.837335,311.697524 L119.398592,307.168636 L127.891115,308.293062 L135.47892,307.833647 L140.175143,307.97071 L148.688446,309.437431 L156.04128,312.543834 L162.292787,316.034957 L171.974551,313.907214 L179.493623,315.623768 L185.291173,316.430555 L189.557415,316.938922 L196.95021,320.297333 L205.744838,317.710174 L214.606602,321.941003 L221.571014,320.566745 L225.858036,320.405388 L229.540847,320.498214 L232.686581,321.099406 L237.497892,325.164527 L244.35361,328.42286 L249.93537,331.127139 L257.609491,333.791894 L263.306339,338.206562 L265.438661,340.866603 L274.556175,340.935135 L291.71705,347 L301.096708,344.876971 L305.625095,339.673646 L311.964517,334.103731 L316.81419,330.347909 C316.81419,330.347909 322.571779,329.240888 322.571779,328.831874 C322.571779,328.42286 326.321724,328.303927 326.321724,328.303927 L342.059985,331.874097 L347.836755,329.621982 L352.598515,327.167173 L360.809712,328.252437 L365.144687,325.802342 L369.478064,323.431294 L375.497797,324.043002 L380.951681,324.272891 L386.923461,323.402286 L395.268928,321.519661 L404.862778,321.612487 L412.041381,320.644705 L420.298934,325.189184 L427.389623,324.685531 L430.644051,325.125003 L437.520549,329.311958 L447.074438,314.560259 L455.781153,315.939231 L464.059484,313.899962 L481.503284,305.608727 L489.733662,306.439446 L504.501669,300.642905 L515.497353,294.529814 L523.796465,297.405965 L528.236937,297.817155 L541.171531,298.164164 L550.034893,302.531694 L558.78956,294.103758 L563.122937,285.56269 L568.854951,277.000228 L575.926459,272.402447 L584.097695,272.862225 L601.929916,266 L610.422439,270.480299 L619.392896,269.585762 L627.087797,269.40011 L634.694783,270.387473 L644.718614,269.375453 L652.929811,279.269023 L660.691846,277.802302 L670.002772,277.249698 C670.002772,277.249698 678.904496,280.271978 678.904496,280.271978 C678.904496,280.271978 685.976004,280.130563 685.976004,279.699793 C685.976004,279.269023 691.389928,275.904448 691.389928,275.904448 L696.503344,272.457562 L704.04959,274.330759 L713.039228,272.384317 L721.619666,267.367006 L730.978545,274.856168 L734.690127,285.064838 L738.507207,293.371303 L747.17396,290.598493 L755.799154,295.199901 L764.963023,305.921289 C764.963023,305.921289 791.073575,291.647498 791.073576,290.626413 C791.073576,289.605329 799.244812,293.639991 799.244812,293.639991 L807.806068,277.971999 C807.806068,277.971999 824.664837,281.128441 824.664838,283.91503 C824.664838,286.70162 833.673658,281.237947 833.673658,281.237947 C833.673658,281.237947 850.922447,286.543163 850.922447,287.116798 C850.922447,287.690433 860,280.376407 860,280.376407" id="Sparkline-Copy-2" stroke="#444444" stroke-width="0.5" sketch:type="MSShapeGroup"></path>
                <path d="M249.25,123.646246 L252.103832,124.949877 L259.564783,127.392569 L265.103385,131.439348 L267.176476,133.87772 L276.040725,133.94054 L292.724909,139.5 L301.844022,137.55389 L306.24662,132.784175 L312.409947,127.67842 L317.124907,124.235583 C317.124907,124.235583 318.107884,124.057385 319.25,123.822746 L319.25,123 L249.25,123 L249.25,123.646246 Z" id="Sparkline-Copy-3" fill-opacity="0.2" fill="#FF3333" sketch:type="MSShapeGroup"></path>
                <path d="M350,122.022299 L353.591472,120.167173 L361.786601,121.252437 L366.113093,118.802342 L370.437989,116.431294 L376.445942,117.043002 L381.889154,117.272891 L387.849247,116.402286 L396.178382,114.519661 L405.753457,114.612487 L412.918013,113.644705 L421.159405,118.189184 L428.236219,117.685531 L431.484278,118.125003 L438.347319,122.311958 L447.882512,107.560259 L456.572187,108.939231 L464.834319,106.899962 L482.243982,98.6087266 L490.458254,99.4394456 L505.197361,93.6429051 L516.171526,87.5298139 L524.454397,90.4059655 L528.88618,90.8171551 L541.795461,91.1641643 L550.641478,95.531694 L559.379013,87.1037576 L563.70391,78.5626897 L569.424706,70.0002283 L576.482376,65.4024469 L584.637621,65.862225 L602.434945,59 L610.910849,63.4802987 L619.863752,62.5857619 L627.543594,62.4001101 L635.135693,63.3874728 L645.139908,62.3754533 L653.335036,72.2690231 L661.081882,70.8023018 L670.374586,70.2496978 C670.374586,70.2496978 679.25889,73.2719777 679.25889,73.2719777 C679.25889,73.2719777 686.31656,73.1305632 686.31656,72.6997932 C686.31656,72.2690231 691.719889,68.9044479 691.719889,68.9044479 L696.823298,65.4575622 L704.354776,67.3307593 L713.326823,65.3843168 L721.890469,60.367006 L731.231033,67.8561682 L734.935352,78.0648384 L738.744962,86.3713035 L747.394755,83.5984932 L756.00307,88.1999006 L765.149006,98.9212887 C765.149006,98.9212887 791.208461,84.6474981 791.208461,83.6264135 C791.208461,82.6053289 799.363707,86.6399909 799.363707,86.6399909 L807.908209,70.9719991 C807.908209,70.9719991 824.733986,74.1284414 824.733987,76.9150305 C824.733987,79.7016196 833.725177,74.2379469 833.725177,74.2379469 C833.725177,74.2379469 850.940211,79.543163 850.940211,80.1167978 C850.940211,80.6904327 860,73.3764068 860,73.3764068 L860,122.218798 L373.586564,122.132812 L352.842084,122.424805 L350,122.283542 L350,122.022299 Z" id="Sparkline-Copy-2" fill-opacity="0.1" fill="#009900" sketch:type="MSShapeGroup"></path>
                <path d="M16.5498342,96 L0,96 L0,122 L245,122 L245,121.736026 L244.35361,121.42286 L237.497892,118.164527 L232.686581,114.099406 L229.540847,113.498214 L225.858036,113.405388 L221.571014,113.566745 L214.606602,114.941003 L205.744838,110.710174 L196.95021,113.297333 L189.557415,109.938922 L185.291173,109.430555 L179.493623,108.623768 L171.974551,106.907214 L162.292787,109.034957 L156.04128,105.543834 L148.688446,102.437431 L140.175143,100.97071 L135.47892,100.833647 L127.891115,101.293062 L119.398592,100.168636 L110.837335,104.697524 L102.773195,106.844847 L94.173576,104.673229 L84.4726306,106.506903 L68.6464548,108.376111 L59.978103,106.184551 L51.1163397,112.993473 L42.2130169,111.780573 L33.5462635,115.375037 L16.2095599,97.6848191 L7.43571092,98.9861943 L0,96.4439109 L16.5498342,96 Z" id="Rectangle-709" fill-opacity="0.1" fill="#009900" sketch:type="MSShapeGroup"></path>
                <rect id="Bar" fill="#A9A9A9" sketch:type="MSShapeGroup" x="0" y="358" width="860" height="1"></rect>
                <path d="M0,302.443911 L7.42706475,304.986194 L16.1907116,303.684819 L33.5072562,321.375037 L42.163932,317.780573 L51.0569021,318.993473 L59.908361,312.184551 L68.5666333,314.376111 L84.3744066,312.506903 L94.0640719,310.673229 L102.653691,312.844847 L110.708455,310.697524 L119.259756,306.168636 L127.742404,307.293062 L135.321386,306.833647 L140.012148,306.97071 L148.515552,308.437431 L155.859836,311.543834 L162.104074,315.034957 L171.774581,312.907214 L179.284909,314.623768 L185.075718,315.430555 L189.336999,315.938922 L196.721198,319.297333 L205.5056,316.710174 L214.357059,320.941003 L221.313373,319.566745 L225.59541,319.405388 L229.273939,319.498214 L232.416015,320.099406 L237.221732,324.164527 L244.069478,327.42286 L249.644748,330.127139 L257.309945,332.791894 L263.000169,337.206562 L265.130011,339.866603 L274.236923,339.935135 L291.377844,346 L300.746596,343.876971 L305.269717,338.673646 L311.601767,333.103731 L316.445801,329.347909 C316.445801,329.347909 322.196695,328.240888 322.196695,327.831874 C322.196695,327.42286 325.94228,327.303927 325.94228,327.303927 L341.662241,330.874097 L347.432294,328.621982 L352.188516,326.167173 L360.390166,327.252437 L364.7201,324.802342 L369.048438,322.431294 L375.061172,323.043002 L380.508714,323.272891 L386.47355,322.402286 L394.809313,320.519661 L404.392007,320.612487 L411.562264,319.644705 L419.810214,324.189184 L426.892658,323.685531 L430.143302,324.125003 L437.011805,328.311958 L446.554584,313.560259 L455.251174,314.939231 L463.51988,312.899962 L480.943396,304.608727 L489.164205,305.439446 L503.91504,299.642905 L514.897937,293.529814 L523.187399,296.405965 L527.622708,296.817155 L540.542262,297.164164 L549.395317,301.531694 C549.395317,301.531694 554.857552,297.364242 558.139805,293.103758 C561.422058,288.843274 562.468143,284.56269 562.468143,284.56269 L568.193491,276.000228 L575.256777,271.402447 L583.418512,271.862225 L601.229997,265 L609.712645,269.480299 L618.672672,268.585762 L626.358625,268.40011 L633.956766,269.387473 L643.968941,268.375453 L652.17059,278.269023 L659.9236,276.802302 L669.223699,276.249698 C669.223699,276.249698 678.115072,279.271978 678.115072,279.271978 C678.115072,279.271978 685.178357,279.130563 685.178358,278.699793 C685.178358,278.269023 690.585986,274.904448 690.585986,274.904448 L695.693457,271.457562 L703.230927,273.330759 L712.210113,271.384317 L720.780573,266.367006 L730.12857,273.856168 L733.835836,284.064838 L737.648478,292.371303 L746.305154,289.598493 L754.920318,294.199901 L764.073531,304.921289 C764.073531,304.921289 790.153722,290.647498 790.153723,289.626413 C790.153723,288.605329 798.315458,292.639991 798.315458,292.639991 L806.866759,276.971999 C806.866759,276.971999 823.705924,280.128441 823.705925,282.91503 C823.705925,285.70162 832.70427,280.237947 832.70427,280.237947 C832.70427,280.237947 849.933002,285.543163 849.933002,286.116798 C849.933002,286.690433 859,279.376407 859,279.376407 L859,357.716957 L0.899137478,357.716957 L0.0643781795,310.443359 L0,302.443911 Z" id="Sparkline-Copy" fill-opacity="0.1" fill="#009900" sketch:type="MSShapeGroup"></path>
                <g id="Year-2027-(12-years)-+-Oval-108" transform="translate(403.000000, 221.000000)">
                    <text id="Year-2027-(12-years)" sketch:type="MSTextLayer" font-family="Helvetica" font-size="13" font-weight="normal" fill="#000000">
                        <tspan x="0.970808773" y="13.3607904">Year 2027 (12 years) </tspan>
                        <tspan x="0.970808773" y="29.3607904">Hypothetical Balance </tspan>
                        <tspan x="0.970808773" y="45.3607904">$156,350.58</tspan>
                    </text>
                    <g id="Oval-108">
                        <use stroke="#19223C" fill="#19223C" fill-rule="evenodd" sketch:type="MSShapeGroup" xlink:href="#path-1"></use>
                        <use stroke="#FFFFFF" fill="none" xlink:href="#path-1"></use>
                    </g>
                </g>
                <g id="Path-Copy-3-+-Year-2027-(12-years)-+-Oval-108-Copy" transform="translate(390.000000, 210.000000)">
                    <path d="M82.9684786,73 L142.991867,73 C145.207556,73 147,71.2079429 147,68.9973283 L147,4.00267165 C147,1.78637648 145.205498,0 142.991867,0 L4.00813286,0 C1.79244443,0 0,1.79205714 0,4.00267165 L0,68.9973283 C0,71.2136235 1.79450221,73 4.00813286,73 L65.0315214,73 L74,81.694418 L82.9684786,73 Z" id="Path-Copy-3" stroke="#DBDBDB" fill="#FFFFFF" sketch:type="MSShapeGroup"></path>
                    <g id="Year-2027-(12-years)-+-Oval-108-Copy" transform="translate(13.000000, 11.000000)">
                        <text id="Year-2027-(12-years)" sketch:type="MSTextLayer" font-family="Helvetica" font-size="13" font-weight="normal" fill="#000000">
                            <tspan x="0.970808773" y="13.3607904">Year 2027 (12 years) </tspan>
                            <tspan x="0.970808773" y="29.3607904">Hypothetical Balance </tspan>
                            <tspan x="0.970808773" y="45.3607904">$156,350.58</tspan>
                        </text>
                        <g id="Oval-108">
                            <use stroke="#19223C" fill="#19223C" fill-rule="evenodd" sketch:type="MSShapeGroup" xlink:href="#path-2"></use>
                            <use stroke="#FFFFFF" fill="none" xlink:href="#path-2"></use>
                        </g>
                    </g>
                </g>
                <g id="Path-Copy-3-+-Year-2027-(12-years)-+-Oval-108-Copy-Copy" transform="translate(136.000000, 27.000000)">
                    <path d="M82.9684786,57 L146.007203,57 C148.210933,57 150,55.2054994 150,52.9918707 L150,4.00812931 C150,1.80003915 148.212364,0 146.007203,0 L3.99279704,0 C1.78906694,0 0,1.79450062 0,4.00812931 L0,52.9918707 C0,55.1999609 1.78763613,57 3.99279704,57 L65.0315214,57 L74,65.694418 L82.9684786,57 Z" id="Path-Copy-3" stroke="#DBDBDB" fill="#FFFFFF" sketch:type="MSShapeGroup"></path>
                    <g id="Year-2027-(12-years)-+-Oval-108-Copy" transform="translate(13.000000, 12.000000)">
                        <text id="Year-1999-(-16-years" sketch:type="MSTextLayer" font-family="Helvetica" font-size="13" font-weight="normal" fill="#000000">
                            <tspan x="0.970808773" y="13.3607904">Year 1999 (-16 years)</tspan>
                            <tspan x="0.970808773" y="29.3607904">Balance $8,750</tspan>
                        </text>
                        <g id="Oval-108">
                            <use stroke="#19223C" fill="#19223C" fill-rule="evenodd" sketch:type="MSShapeGroup" xlink:href="#path-3"></use>
                            <use stroke="#FFFFFF" fill="none" xlink:href="#path-3"></use>
                        </g>
                    </g>
                </g>
                <text id="2015" sketch:type="MSTextLayer" font-family="Helvetica" font-size="13" font-weight="normal" sketch:alignment="middle" fill="#444444">
                    <tspan x="0.0400390625" y="432">2015</tspan>
                </text>
                <text id="2020" sketch:type="MSTextLayer" font-family="Helvetica" font-size="13" font-weight="normal" sketch:alignment="middle" fill="#444444">
                    <tspan x="208.040039" y="432">2020</tspan>
                </text>
                <text id="2025" sketch:type="MSTextLayer" font-family="Helvetica" font-size="13" font-weight="normal" sketch:alignment="middle" fill="#444444">
                    <tspan x="415.040039" y="432">2025</tspan>
                </text>
                <text id="2030" sketch:type="MSTextLayer" font-family="Helvetica" font-size="13" font-weight="normal" sketch:alignment="middle" fill="#444444">
                    <tspan x="622.040039" y="432">2030</tspan>
                </text>
                <text id="2035" sketch:type="MSTextLayer" font-family="Helvetica" font-size="13" font-weight="normal" sketch:alignment="middle" fill="#444444">
                    <tspan x="831.216382" y="432">2035</tspan>
                </text>
                <text id="1995" sketch:type="MSTextLayer" font-family="Helvetica" font-size="13" font-weight="normal" sketch:alignment="middle" fill="#444444">
                    <tspan x="0.0400390625" y="197">1995</tspan>
                </text>
                <text id="2000" sketch:type="MSTextLayer" font-family="Helvetica" font-size="13" font-weight="normal" sketch:alignment="middle" fill="#444444">
                    <tspan x="208.040039" y="197">2000</tspan>
                </text>
                <text id="2005" sketch:type="MSTextLayer" font-family="Helvetica" font-size="13" font-weight="normal" sketch:alignment="middle" fill="#444444">
                    <tspan x="415.040039" y="197">2005</tspan>
                </text>
                <text id="2010" sketch:type="MSTextLayer" font-family="Helvetica" font-size="13" font-weight="normal" sketch:alignment="middle" fill="#444444">
                    <tspan x="622.040039" y="197">2010</tspan>
                </text>
                <text id="2015" sketch:type="MSTextLayer" font-family="Helvetica" font-size="13" font-weight="normal" sketch:alignment="middle" fill="#444444">
                    <tspan x="831.216382" y="197">2015</tspan>
                </text>
                <text id="40%" sketch:type="MSTextLayer" font-family="Helvetica" font-size="13" font-weight="normal" line-spacing="28" fill="#444444">
                    <tspan x="871" y="246">40%</tspan>
                    <tspan x="871" y="274">30%</tspan>
                    <tspan x="871" y="302">20%</tspan>
                    <tspan x="871" y="330">10%</tspan>
                    <tspan x="871" y="358">0</tspan>
                    <tspan x="871" y="386">-10%</tspan>
                    <tspan x="871" y="414">-20%</tspan>
                </text>
                <text id="40%-copy" sketch:type="MSTextLayer" font-family="Helvetica" font-size="13" font-weight="normal" line-spacing="28" fill="#444444">
                    <tspan x="871" y="13">40%</tspan>
                    <tspan x="871" y="41">30%</tspan>
                    <tspan x="871" y="69">20%</tspan>
                    <tspan x="871" y="97">10%</tspan>
                    <tspan x="871" y="125">0</tspan>
                    <tspan x="871" y="153">-10%</tspan>
                    <tspan x="871" y="181">-20%</tspan>
                </text>
            </g>
        </g>
    </g>
</svg>