<?xml version="1.0" encoding="UTF-8" standalone="no"?>
<svg width="180px" height="181px" viewBox="0 0 180 181" version="1.1" xmlns="http://www.w3.org/2000/svg" xmlns:xlink="http://www.w3.org/1999/xlink" xmlns:sketch="http://www.bohemiancoding.com/sketch/ns">
    <!-- Generator: Sketch 3.3.3 (12072) - http://www.bohemiancoding.com/sketch -->
    <title>4-blue</title>
    <desc>Created with Sketch.</desc>
    <defs></defs>
    <g id="Page-1" stroke="none" stroke-width="1" fill="none" fill-rule="evenodd" sketch:type="MSPage">
        <g id="4-blue" sketch:type="MSLayerGroup">
            <g id="Welcome" sketch:type="MSShapeGroup">
                <g id="Question9_Desktop1" transform="translate(0.000000, 0.500000)">
                    <g id="Oval-1-Copy-2-+-Group-+-Stroke-1-+-Stroke-2">
                        <g id="Oval-1-Copy-2-+-Group" fill="#333752">
                            <circle id="Oval-1-Copy-2" cx="90" cy="90" r="90"></circle>
                        </g>
                        <g id="Stroke-1-+-Stroke-2" transform="translate(56.000000, 56.000000)" stroke="#FFFFFF" stroke-width="1.5">
                            <path d="M34.3216667,0.0516666667 C15.4883333,0.0516666667 0.158333333,15.3783333 0.158333333,34.2166667 C0.158333333,53.0583333 15.4883333,68.385 34.3216667,68.385 C53.1633333,68.385 68.4916667,53.0583333 68.4916667,34.2166667 C68.4916667,15.3783333 53.1633333,0.0516666667 34.3216667,0.0516666667 L34.3216667,0.0516666667 L34.3216667,0.0516666667 Z M28.215,26.4383333 C29.5183333,27.74 29.5183333,29.85 28.215,31.1516667 C26.9133333,32.4516667 24.8033333,32.4516667 23.5016667,31.1516667 C22.2,29.85 22.2,27.74 23.5016667,26.4383333 C24.8033333,25.1366667 26.9133333,25.1366667 28.215,26.4383333 L28.215,26.4383333 L28.215,26.4383333 Z M45.15,26.4366667 C46.45,27.74 46.45,29.85 45.15,31.1516667 C43.845,32.4533333 41.7366667,32.4533333 40.4316667,31.1516667 C39.1316667,29.85 39.1316667,27.74 40.4316667,26.4366667 C41.7366667,25.135 43.845,25.135 45.15,26.4366667 L45.15,26.4366667 L45.15,26.4366667 Z" id="Stroke-1"></path>
                            <path d="M20.4816667,45.3766667 C25.1683333,58.1883333 43.3916667,58.4166667 48.17,45.3766667" id="Stroke-2"></path>
                        </g>
                    </g>
                </g>
            </g>
        </g>
    </g>
</svg>