<?xml version="1.0" encoding="UTF-8" standalone="no"?>
<svg width="180px" height="181px" viewBox="0 0 180 181" version="1.1" xmlns="http://www.w3.org/2000/svg" xmlns:xlink="http://www.w3.org/1999/xlink" xmlns:sketch="http://www.bohemiancoding.com/sketch/ns">
    <!-- Generator: Sketch 3.3.3 (12072) - http://www.bohemiancoding.com/sketch -->
    <title>2</title>
    <desc>Created with Sketch.</desc>
    <defs></defs>
    <g id="Page-1" stroke="none" stroke-width="1" fill="none" fill-rule="evenodd" sketch:type="MSPage">
        <g id="2" sketch:type="MSLayerGroup">
            <g id="Welcome" sketch:type="MSShapeGroup">
                <g id="Question9_Desktop1" transform="translate(0.000000, 0.500000)">
                    <g id="Disagree-+-Oval-1-Copy-+-Group-+-Stroke-1-+-Stroke-2">
                        <g id="Oval-1-Copy-+-Group-+-Stroke-1-+-Stroke-2">
                            <g id="Oval-1-Copy-+-Group" fill="#333752">
                                <circle id="Oval-1-Copy" cx="90" cy="90" r="90"></circle>
                            </g>
                            <g id="Stroke-1-+-Stroke-2" transform="translate(56.000000, 55.000000)" stroke="#FFFFFF" stroke-width="1.5">
                                <path d="M34.2824288,0.929138399 C15.493555,0.929138399 0.210142469,16.214213 0.210142469,35.0014247 C0.210142469,53.7902985 15.493555,69.0770353 34.2824288,69.0770353 C53.0696404,69.0770353 68.3563772,53.7902985 68.3563772,35.0014247 C68.3563772,16.214213 53.0696404,0.929138399 34.2824288,0.929138399 L34.2824288,0.929138399 L34.2824288,0.929138399 Z M28.1906716,24.0395862 C29.488806,25.3377205 29.488806,27.4419946 28.1906716,28.7401289 C26.8925373,30.0366011 24.7882632,30.0366011 23.4901289,28.7401289 C22.1903324,27.4419946 22.1903324,25.3377205 23.4901289,24.0395862 C24.7882632,22.7414518 26.8925373,22.7414518 28.1906716,24.0395862 L28.1906716,24.0395862 L28.1906716,24.0395862 Z M45.0780529,24.037924 C46.3745251,25.3377205 46.3745251,27.4419946 45.0780529,28.7401289 C43.7782564,30.0382632 41.6739824,30.0382632 40.3741859,28.7401289 C39.0777137,27.4419946 39.0777137,25.3377205 40.3741859,24.037924 C41.6739824,22.7397897 43.7782564,22.7397897 45.0780529,24.037924 L45.0780529,24.037924 L45.0780529,24.037924 Z" id="Stroke-1"></path>
                                <path d="M24.4009837,51.3303256 L47.4898236,44.1914179" id="Stroke-2"></path>
                            </g>
                        </g>
                    </g>
                </g>
            </g>
        </g>
    </g>
</svg>