<?xml version="1.0" encoding="UTF-8" standalone="no"?>
<svg width="180px" height="180px" viewBox="0 0 180 180" version="1.1" xmlns="http://www.w3.org/2000/svg" xmlns:xlink="http://www.w3.org/1999/xlink" xmlns:sketch="http://www.bohemiancoding.com/sketch/ns">
    <!-- Generator: Sketch 3.3.3 (12081) - http://www.bohemiancoding.com/sketch -->
    <title>Oval-1-Copy-+-Group</title>
    <desc>Created with Sketch.</desc>
    <defs></defs>
    <g id="Page-1" stroke="none" stroke-width="1" fill="none" fill-rule="evenodd" sketch:type="MSPage">
        <g id="education-white" sketch:type="MSLayerGroup">
            <g id="Welcome" sketch:type="MSShapeGroup">
                <g id="Question1_Desktop">
                    <g id="Oval-1-Copy-+-Group">
                        <circle id="Oval-1-Copy" fill="#FFFFFF" cx="90" cy="90" r="90"></circle>
                        <g id="Group" transform="translate(45.900000, 63.000000)">
                            <path d="M44.4497786,35.4860448 C42.8530815,35.4860448 41.2799808,35.1845309 39.7776697,34.5873389 C35.1271909,32.7393506 1.50216448,18.9630841 1.16198146,18.8249713 C0.792302809,18.6732418 0.55240496,18.3153156 0.554371336,17.9204297 C0.556337711,17.5255438 0.802134688,17.1695629 1.17377972,17.0236691 L40.7451266,1.40135953 C40.7726558,1.38968803 42.3713194,0.68550722 44.5677612,0.68550722 C45.8655692,0.68550722 47.1142178,0.928663575 48.2743796,1.40719528 C51.7371674,2.83695465 86.2234664,14.7652328 86.5695485,14.8858384 C86.9451263,15.0142249 87.2066543,15.3565891 87.2282844,15.7495298 C87.2499146,16.1424704 87.0316469,16.5101228 86.6718001,16.6793597 L49.1218875,34.5620507 C49.0491316,34.5951199 47.1791082,35.4860448 44.4497786,35.4860448 L44.4497786,35.4860448 L44.4497786,35.4860448 Z M4.14890632,17.9418275 C11.7843436,21.0697908 36.5744435,31.2181645 40.5111279,32.7821461 C41.7794403,33.2859661 43.1047776,33.540794 44.4497786,33.540794 C46.6993125,33.540794 48.2488167,32.8171607 48.2645477,32.8093797 L83.6809425,15.9460001 C75.8645986,13.2382109 50.5494764,4.45540336 47.5173249,3.20266181 C46.597061,2.8233379 45.6060076,2.63075806 44.5677612,2.63075806 C42.8157203,2.63075806 41.5238114,3.18709981 41.5100468,3.19293556 L4.14890632,17.9418275 L4.14890632,17.9418275 Z" id="Fill-1" fill="#333752"></path>
                            <path d="M45.1065481,54.4658573 C43.5393466,54.4658573 41.9800106,54.1604529 40.5032624,53.5535347 L36.9008619,52.0945965 C31.9652586,50.0948787 23.3662971,46.6148249 20.6232029,45.4924152 C16.2519495,43.7047296 15.8724389,37.9662396 15.8586743,37.7230833 L15.8567079,28.6115283 C15.8567079,28.0726939 16.2971761,27.6389029 16.8398958,27.6389029 C17.3845819,27.6389029 17.8230837,28.0726939 17.8230837,28.6115283 L17.8230837,37.6686163 C17.8270165,37.6686163 18.1554012,42.3780686 21.3763248,43.6969486 C24.1174527,44.8174131 32.7124814,48.2955216 37.6461183,50.2932942 L41.2091913,51.7366704 C42.6957714,52.3494244 45.6178058,53.1353057 49.0471653,51.7366704 C53.2512768,50.0170686 68.1269098,43.8350614 69.5741624,43.2359242 C70.0283952,42.8799433 72.4313064,40.8607729 72.4313064,37.6686163 L72.4313064,28.0629676 C72.4313064,27.5260784 72.8717746,27.0903422 73.4144943,27.0903422 C73.9572141,27.0903422 74.3976823,27.5260784 74.3976823,28.0629676 L74.3976823,37.6686163 C74.3976823,42.2068865 70.7874163,44.7726723 70.6340389,44.8796611 C70.577014,44.9205114 70.5121236,44.9555259 70.4472332,44.9808142 C70.4472332,44.9808142 54.2207,51.7269441 49.7983208,53.5340821 C48.2783123,54.1546172 46.6875143,54.4658573 45.1065481,54.4658573" id="Fill-2" fill="#333752"></path>
                            <path d="M86.2942559,22.3050251 C85.7495698,22.3050251 85.311068,21.8692889 85.311068,21.3323997 L85.311068,15.8039968 C85.311068,15.2651623 85.7495698,14.8313714 86.2942559,14.8313714 C86.8369756,14.8313714 87.2774438,15.2651623 87.2774438,15.8039968 L87.2774438,21.3323997 C87.2774438,21.8692889 86.8369756,22.3050251 86.2942559,22.3050251" id="Fill-3" fill="#333752"></path>
                            <path d="M86.2942559,41.9267704 C85.7495698,41.9267704 85.311068,41.4910342 85.311068,40.9541449 L85.311068,29.4363147 C85.311068,28.8974802 85.7495698,28.4636893 86.2942559,28.4636893 C86.8369756,28.4636893 87.2774438,28.8974802 87.2774438,29.4363147 L87.2774438,40.9541449 C87.2774438,41.4910342 86.8369756,41.9267704 86.2942559,41.9267704" id="Fill-4" fill="#333752"></path>
                            <path d="M87.4858797,25.5963895 C87.4858797,26.3064061 86.9057988,26.8822003 86.1880716,26.8822003 C85.4703445,26.8822003 84.8882972,26.3064061 84.8882972,25.5963895 C84.8882972,24.8883182 85.4703445,24.312524 86.1880716,24.312524 C86.9057988,24.312524 87.4858797,24.8883182 87.4858797,25.5963895" id="Fill-5" fill="#333752"></path>
                            <path d="M62.8688209,5.53112707 L65.2894295,3.48472318 L66.6069013,5.0117451 L64.1862927,7.06009424 L67.1889485,8.11247494 L66.5105489,10.0090945 L63.507893,8.95476856 L64.0879739,12.0535532 L62.090136,12.4192603 L61.5139879,9.32242097 L61.085318,7.03869648 L62.8688209,5.53112707" id="Fill-6" fill="#96CE00"></path>
                            <path d="M62.8688209,5.53112707 L62.2907064,2.43428773 L60.2928685,2.79999489 L60.8729494,5.89877948 L57.8722599,4.84445352 L57.1918939,6.7410731 L60.1925834,7.7934538 L57.7719747,9.83985769 L59.0914129,11.3688249 L61.5139879,9.32242097 L63.293558,7.81679681 L62.8688209,5.53112707" id="Fill-7" fill="#682ACF"></path>
                        </g>
                    </g>
                </g>
            </g>
        </g>
    </g>
</svg>