<?xml version="1.0" encoding="UTF-8" standalone="no"?>
<svg width="180px" height="180px" viewBox="0 0 180 180" version="1.1" xmlns="http://www.w3.org/2000/svg" xmlns:xlink="http://www.w3.org/1999/xlink" xmlns:sketch="http://www.bohemiancoding.com/sketch/ns">
    <!-- Generator: Sketch 3.3.3 (12081) - http://www.bohemiancoding.com/sketch -->
    <title>Oval-1-Copy-2-+-Group</title>
    <desc>Created with Sketch.</desc>
    <defs></defs>
    <g id="Page-1" stroke="none" stroke-width="1" fill="none" fill-rule="evenodd" sketch:type="MSPage">
        <g id="growth-blue" sketch:type="MSLayerGroup">
            <g id="Welcome" sketch:type="MSShapeGroup">
                <g id="Question1_Desktop">
                    <g id="Oval-1-Copy-2-+-Group">
                        <circle id="Oval-1-Copy-2" fill="#333752" cx="90" cy="90" r="90"></circle>
                        <g id="Group" transform="translate(56.800000, 62.100000)">
                            <path d="M33.4940195,34.0184015 L35.3740854,30.6924663 L37.457447,31.915917 L35.5723408,35.2418522 L39.339193,35.2418522 L39.339193,37.6921806 L35.5723408,37.6921806 L37.457447,41.0181158 L35.3740854,42.24328 L33.4940195,38.9173448 L32.1062319,36.4670164 L33.4940195,34.0184015" id="Fill-1" fill="#99CC00"></path>
                            <path d="M33.4940195,34.0184015 L31.6105934,30.6924663 L29.5305921,31.915917 L31.4123381,35.2418522 L27.6488461,35.2418522 L27.6488461,37.6921806 L31.4123381,37.6921806 L29.5305921,41.0181158 L31.6105934,42.24328 L34.8818072,36.4670164 L33.4940195,34.0184015" id="Fill-2" fill="#6633CC"></path>
                            <path d="M56.7503837,9.7858532 L10.2359753,9.7858532 C9.7722593,9.7858532 9.3959101,9.40202554 9.3959101,8.92909502 C9.3959101,8.45445099 9.7722593,8.07233685 10.2359753,8.07233685 L56.7503837,8.07233685 C57.2140996,8.07233685 57.5904488,8.45445099 57.5904488,8.92909502 C57.5904488,9.40202554 57.2140996,9.7858532 56.7503837,9.7858532" id="Fill-3" fill="#FFFFFF"></path>
                            <path d="M47.963302,1.93794829 L19.023057,1.93794829 C18.559341,1.93794829 18.1829918,1.55412062 18.1829918,1.08119011 C18.1829918,0.608259593 18.559341,0.224431929 19.023057,0.224431929 L47.963302,0.224431929 C48.4286981,0.224431929 48.8033672,0.608259593 48.8033672,1.08119011 C48.8033672,1.55412062 48.4286981,1.93794829 47.963302,1.93794829" id="Fill-4" fill="#FFFFFF"></path>
                            <path d="M55.0568123,50.8759754 L11.9295467,50.8759754 C11.4658307,50.8759754 11.0894815,50.4921478 11.0894815,50.0192173 C11.0894815,47.4095319 8.97251729,45.2847716 6.37167553,45.2847716 C5.90627943,45.2847716 5.53161036,44.9026574 5.53161036,44.4280134 L5.53161036,29.0406365 C5.53161036,28.567706 5.90627943,28.1838783 6.37167553,28.1838783 C8.97251729,28.1838783 11.0894815,26.0608316 11.0894815,23.4511462 C11.0894815,23.1392862 11.0558789,22.8325667 10.9987545,22.5361284 C10.9483506,22.285955 11.0121955,22.023787 11.1718079,21.8250191 C11.3314203,21.6279647 11.5699988,21.5114456 11.8220183,21.5114456 L55.1643406,21.5114456 C55.4163602,21.5114456 55.6549387,21.6279647 55.8145511,21.8250191 C55.9741634,22.023787 56.0380084,22.285955 55.9892846,22.5361284 C55.9321602,22.8325667 55.8968774,23.1392862 55.8968774,23.4511462 C55.8968774,26.0608316 58.0138417,28.1838783 60.6163636,28.1838783 C61.0800795,28.1838783 61.4564287,28.567706 61.4564287,29.0406365 L61.4564287,44.4280134 C61.4564287,44.9026574 61.0800795,45.2847716 60.6163636,45.2847716 C58.0138417,45.2847716 55.8968774,47.4095319 55.8968774,50.0192173 C55.8968774,50.4921478 55.5222084,50.8759754 55.0568123,50.8759754 L55.0568123,50.8759754 L55.0568123,50.8759754 Z M12.7141675,49.1624591 L54.2721914,49.1624591 C54.653581,46.2871786 56.9200768,44.0064884 59.7762984,43.6278013 L59.7762984,29.8425622 C56.6428553,29.4261777 54.2167471,26.7188218 54.2167471,23.4511462 C54.2167471,23.3757514 54.2184272,23.3003567 54.2217875,23.224962 L12.7645715,23.224962 C12.7679317,23.3003567 12.7696118,23.3757514 12.7696118,23.4511462 C12.7696118,26.7188218 10.3435036,29.4261777 7.2117407,29.8425622 L7.2117407,43.6278013 C10.0662821,44.0064884 12.332778,46.2871786 12.7141675,49.1624591 L12.7141675,49.1624591 L12.7141675,49.1624591 Z" id="Fill-5" fill="#FFFFFF"></path>
                            <path d="M66.0784673,56.2649844 L0.90957181,56.2649844 C0.44417571,56.2649844 0.06950664,55.8828702 0.06950664,55.4082262 L0.06950664,16.9791949 C0.06950664,16.5045508 0.44417571,16.1224367 0.90957181,16.1224367 L66.0784673,16.1224367 C66.5421833,16.1224367 66.9185324,16.5045508 66.9185324,16.9791949 L66.9185324,55.4082262 C66.9185324,55.8828702 66.5421833,56.2649844 66.0784673,56.2649844 L66.0784673,56.2649844 L66.0784673,56.2649844 Z M1.74963698,54.551468 L65.2384021,54.551468 L65.2384021,17.8342395 L1.74963698,17.8342395 L1.74963698,54.551468 L1.74963698,54.551468 Z" id="Fill-6" fill="#FFFFFF"></path>
                        </g>
                    </g>
                </g>
            </g>
        </g>
    </g>
</svg>