<?xml version="1.0" encoding="UTF-8" standalone="no"?>
<svg width="180px" height="180px" viewBox="0 0 180 180" version="1.1" xmlns="http://www.w3.org/2000/svg" xmlns:xlink="http://www.w3.org/1999/xlink" xmlns:sketch="http://www.bohemiancoding.com/sketch/ns">
    <!-- Generator: Sketch 3.3.3 (12081) - http://www.bohemiancoding.com/sketch -->
    <title>Oval-1-Copy-2-+-Group-Copy-2-+-Oval-1-Copy-2-+-Group</title>
    <desc>Created with Sketch.</desc>
    <defs></defs>
    <g id="Page-1" stroke="none" stroke-width="1" fill="none" fill-rule="evenodd" sketch:type="MSPage">
        <g id="growth-white" sketch:type="MSLayerGroup">
            <g id="Welcome" sketch:type="MSShapeGroup">
                <g id="Question1_4_Desktop">
                    <g id="Oval-1-Copy-2-+-Group-Copy-2-+-Oval-1-Copy-2-+-Group">
                        <circle id="Oval-1-Copy-2" fill="#FFFFFF" cx="90" cy="90" r="90"></circle>
                        <g id="Group-Copy-2" transform="translate(57.000000, 61.000000)">
                            <path d="M33.4915077,34.0159243 L35.3714366,30.6902313 L37.4546465,31.9135928 L35.5696776,35.2392859 L39.3362555,35.2392859 L39.3362555,37.6894359 L35.5696776,37.6894359 L37.4546465,41.0151289 L35.3714366,42.2402039 L33.4915077,38.9145108 L32.1038211,36.4643609 L33.4915077,34.0159243" id="Fill-1" fill="#99CC00"></path>
                            <path d="M33.4915077,34.0159243 L31.6082187,30.6902313 L29.5283689,31.9135928 L31.4099778,35.2392859 L27.6467599,35.2392859 L27.6467599,37.6894359 L31.4099778,37.6894359 L29.5283689,41.0151289 L31.6082187,42.2402039 L34.8791943,36.4643609 L33.4915077,34.0159243" id="Fill-2" fill="#6633CC"></path>
                            <path d="M56.7461783,9.7851406 L10.2351571,9.7851406 C9.7714749,9.7851406 9.3951531,9.40134089 9.3951531,8.92844481 C9.3951531,8.45383534 9.7714749,8.07174902 10.2351571,8.07174902 L56.7461783,8.07174902 C57.2098605,8.07174902 57.5861823,8.45383534 57.5861823,8.92844481 C57.5861823,9.40134089 57.2098605,9.7851406 56.7461783,9.7851406" id="Fill-3" fill="#333752"></path>
                            <path d="M47.9597365,1.93780717 L19.0215989,1.93780717 C18.5579167,1.93780717 18.1815949,1.55400745 18.1815949,1.08111138 C18.1815949,0.6082153 18.5579167,0.224415586 19.0215989,0.224415586 L47.9597365,0.224415586 C48.4250987,0.224415586 48.7997405,0.6082153 48.7997405,1.08111138 C48.7997405,1.55400745 48.4250987,1.93780717 47.9597365,1.93780717" id="Fill-4" fill="#333752"></path>
                            <path d="M55.0527302,50.8722707 L11.9286052,50.8722707 C11.464923,50.8722707 11.0886012,50.488471 11.0886012,50.0155749 C11.0886012,47.4060795 8.97179109,45.281474 6.37113873,45.281474 C5.90577651,45.281474 5.53113473,44.8993876 5.53113473,44.4247782 L5.53113473,29.0385218 C5.53113473,28.5656257 5.90577651,28.181826 6.37113873,28.181826 C8.97179109,28.181826 11.0886012,26.0589338 11.0886012,23.4494384 C11.0886012,23.1376012 11.055001,22.8309041 10.9978807,22.5344873 C10.9474805,22.2843322 11.0113208,22.0221833 11.1709216,21.8234298 C11.3305223,21.6263898 11.5690834,21.5098792 11.8210846,21.5098792 L55.1602507,21.5098792 C55.4122519,21.5098792 55.6508131,21.6263898 55.8104138,21.8234298 C55.9700146,22.0221833 56.0338549,22.2843322 55.9851347,22.5344873 C55.9280144,22.8309041 55.8927342,23.1376012 55.8927342,23.4494384 C55.8927342,26.0589338 58.0095443,28.181826 60.6118767,28.181826 C61.0755589,28.181826 61.4518807,28.5656257 61.4518807,29.0385218 L61.4518807,44.4247782 C61.4518807,44.8993876 61.0755589,45.281474 60.6118767,45.281474 C58.0095443,45.281474 55.8927342,47.4060795 55.8927342,50.0155749 C55.8927342,50.488471 55.5180924,50.8722707 55.0527302,50.8722707 L55.0527302,50.8722707 L55.0527302,50.8722707 Z M12.7131689,49.1588791 L54.2681665,49.1588791 C54.6495283,46.283808 56.9158591,44.0032838 59.7718727,43.6246243 L59.7718727,29.840389 C56.6386578,29.4240349 54.2127262,26.7168762 54.2127262,23.4494384 C54.2127262,23.3740492 54.2144062,23.29866 54.2177663,23.2232708 L12.7635691,23.2232708 C12.7669291,23.29866 12.7686092,23.3740492 12.7686092,23.4494384 C12.7686092,26.7168762 10.3426776,29.4240349 7.21114272,29.840389 L7.21114272,43.6246243 C10.0654763,44.0032838 12.3318071,46.283808 12.7131689,49.1588791 L12.7131689,49.1588791 L12.7131689,49.1588791 Z" id="Fill-5" fill="#333752"></path>
                            <path d="M66.0735826,56.2608872 L0.90943275,56.2608872 C0.44407054,56.2608872 0.06942876,55.8788009 0.06942876,55.4041914 L0.06942876,16.9779584 C0.06942876,16.503349 0.44407054,16.1212627 0.90943275,16.1212627 L66.0735826,16.1212627 C66.5372648,16.1212627 66.9135866,16.503349 66.9135866,16.9779584 L66.9135866,55.4041914 C66.9135866,55.8788009 66.5372648,56.2608872 66.0735826,56.2608872 L66.0735826,56.2608872 L66.0735826,56.2608872 Z M1.74943675,54.5474956 L65.2335786,54.5474956 L65.2335786,17.8329408 L1.74943675,17.8329408 L1.74943675,54.5474956 L1.74943675,54.5474956 Z" id="Fill-6" fill="#333752"></path>
                        </g>
                    </g>
                </g>
            </g>
        </g>
    </g>
</svg>