<?xml version="1.0" encoding="UTF-8" standalone="no"?>
<svg width="180px" height="180px" viewBox="0 0 180 180" version="1.1" xmlns="http://www.w3.org/2000/svg" xmlns:xlink="http://www.w3.org/1999/xlink" xmlns:sketch="http://www.bohemiancoding.com/sketch/ns">
    <!-- Generator: Sketch 3.3.3 (12081) - http://www.bohemiancoding.com/sketch -->
    <title>Oval-1-Copy-+-Group</title>
    <desc>Created with Sketch.</desc>
    <defs></defs>
    <g id="Page-1" stroke="none" stroke-width="1" fill="none" fill-rule="evenodd" sketch:type="MSPage">
        <g id="house-white" sketch:type="MSLayerGroup">
            <g id="Welcome" sketch:type="MSShapeGroup">
                <g id="Question1_Desktop">
                    <g id="Oval-1-Copy-+-Group">
                        <circle id="Oval-1-Copy" fill="#FFFFFF" cx="90" cy="90" r="90"></circle>
                        <g id="Group" transform="translate(55.800000, 44.775000)">
                            <path d="M54.0989732,3.44972792 L55.868472,0.330456863 L57.827917,1.47859246 L56.0550858,4.59786352 L59.599082,4.59786352 L59.599082,6.89582813 L56.0550858,6.89582813 L57.827917,10.0134058 L55.868472,11.1632348 L54.0989732,8.04396373 L52.7926765,5.74769253 L54.0989732,3.44972792" id="Fill-1" fill="#99CC00"></path>
                            <path d="M54.0989732,3.44972792 L52.3244758,0.330456863 L50.366697,1.47859246 L52.1395282,4.59786352 L48.5971982,4.59786352 L48.5971982,6.89582813 L52.1395282,6.89582813 L50.366697,10.0134058 L52.3244758,11.1632348 L54.0989732,8.04396373 L55.4036037,5.74769253 L54.0989732,3.44972792" id="Fill-2" fill="#6633CC"></path>
                            <path d="M59.7923606,78.3698094 L8.21363659,78.3698094 C7.75376684,78.3698094 7.38053922,77.9904843 7.38053922,77.5231017 L7.38053922,37.5855943 C7.38053922,37.1182117 7.75376684,36.7388867 8.21363659,36.7388867 C8.67517253,36.7388867 9.04673395,37.1182117 9.04673395,37.5855943 L9.04673395,76.676394 L58.9592632,76.676394 L58.9592632,17.8573056 L48.2472973,17.8573056 L48.2472973,26.2888206 C48.2472973,26.7562032 47.8740697,27.1355283 47.4142,27.1355283 C46.952664,27.1355283 46.5811026,26.7562032 46.5811026,26.2888206 L46.5811026,17.010598 C46.5811026,16.5415219 46.952664,16.1638903 47.4142,16.1638903 L59.7923606,16.1638903 C60.2538965,16.1638903 60.625458,16.5415219 60.625458,17.010598 L60.625458,77.5231017 C60.625458,77.9904843 60.2538965,78.3698094 59.7923606,78.3698094" id="Fill-3" fill="#333752"></path>
                            <path d="M66.9153431,44.4693277 C66.7253969,44.4693277 66.5337845,44.4049779 66.3788284,44.2711981 L33.9113579,16.4382236 L1.63216741,44.2695047 C1.28393271,44.572626 0.75574898,44.5285972 0.459166319,44.1712866 C0.160917462,43.813976 0.204238525,43.2805501 0.555805613,42.9774288 L33.3715108,14.6838453 C33.6797568,14.4162857 34.1362942,14.4145922 34.4462064,14.6821519 L67.4518578,42.9757354 C67.8034249,43.2771633 67.8484121,43.8122825 67.5518295,44.1695932 C67.3868762,44.3677228 67.1519427,44.4693277 66.9153431,44.4693277" id="Fill-4" fill="#333752"></path>
                            <path d="M39.7113817,78.3698094 C39.2498458,78.3698094 38.8782844,77.9904843 38.8782844,77.5231017 L38.8782844,56.714414 L29.129379,56.714414 L29.129379,77.5231017 C29.129379,77.9904843 28.7561514,78.3698094 28.2962816,78.3698094 C27.8364119,78.3698094 27.4631843,77.9904843 27.4631843,77.5231017 L27.4631843,55.8677063 C27.4631843,55.4003237 27.8364119,55.0209987 28.2962816,55.0209987 L39.7113817,55.0209987 C40.1712515,55.0209987 40.5444791,55.4003237 40.5444791,55.8677063 L40.5444791,77.5231017 C40.5444791,77.9904843 40.1712515,78.3698094 39.7113817,78.3698094" id="Fill-5" fill="#333752"></path>
                        </g>
                    </g>
                </g>
            </g>
        </g>
    </g>
</svg>