<?xml version="1.0" encoding="UTF-8" standalone="no"?>
<svg width="180px" height="180px" viewBox="0 0 180 180" version="1.1" xmlns="http://www.w3.org/2000/svg" xmlns:xlink="http://www.w3.org/1999/xlink" xmlns:sketch="http://www.bohemiancoding.com/sketch/ns">
    <!-- Generator: Sketch 3.3.3 (12081) - http://www.bohemiancoding.com/sketch -->
    <title>Oval-1-Copy-3-+-Group</title>
    <desc>Created with Sketch.</desc>
    <defs></defs>
    <g id="Page-1" stroke="none" stroke-width="1" fill="none" fill-rule="evenodd" sketch:type="MSPage">
        <g id="other-blue" sketch:type="MSLayerGroup">
            <g id="Welcome" sketch:type="MSShapeGroup">
                <g id="Question1_Desktop">
                    <g id="Oval-1-Copy-3-+-Group-+-Another-goal">
                        <g id="Oval-1-Copy-3-+-Group">
                            <circle id="Oval-1-Copy-3" fill="#333752" cx="90" cy="90" r="90"></circle>
                            <g id="Group" transform="translate(57.600000, 63.000000)">
                                <path d="M64.2075852,23.110972 L37.8978064,23.110972 L37.8978064,21.3500355 L63.3246474,21.3500355 L63.3246474,16.3208008 C63.3246474,15.317067 62.5035153,14.4982315 61.4969663,14.4982315 L4.40797801,14.4982315 C3.40142899,14.4982315 2.58029689,15.317067 2.58029689,16.3208008 L2.58029689,21.3500355 L28.4291821,21.3500355 L28.4291821,23.110972 L1.69735915,23.110972 C1.20821165,23.110972 0.814421414,22.7165222 0.814421414,22.2305037 L0.814421414,16.3208008 C0.814421414,14.34503 2.42666573,12.737295 4.40797801,12.737295 L61.4969663,12.737295 C63.4782786,12.737295 65.0905229,14.34503 65.0905229,16.3208008 L65.0905229,22.2305037 C65.0905229,22.7165222 64.6967327,23.110972 64.2075852,23.110972" id="Fill-1" fill="#FFFFFF"></path>
                                <path d="M58.283073,53.0556975 L7.62187138,53.0556975 C5.63879322,53.0556975 4.02654891,51.4479625 4.02654891,49.4721917 L4.02654891,22.2481131 C4.02654891,21.7603337 4.42210501,21.3676449 4.90948665,21.3676449 L28.430948,21.3676449 L28.430948,23.1285814 L5.79242439,23.1285814 L5.79242439,49.4721917 C5.79242439,50.4759255 6.61355648,51.294761 7.62187138,51.294761 L58.283073,51.294761 C59.289622,51.294761 60.1107541,50.4759255 60.1107541,49.4721917 L60.1107541,23.1285814 L37.8978064,23.1285814 L37.8978064,21.3676449 L60.9936918,21.3676449 C61.4810734,21.3676449 61.8766295,21.7603337 61.8766295,22.2481131 L61.8766295,49.4721917 C61.8766295,51.4479625 60.2643852,53.0556975 58.283073,53.0556975" id="Fill-2" fill="#FFFFFF"></path>
                                <path d="M37.7547705,53.0556975 L28.6940635,53.0556975 C28.2049159,53.0556975 27.8111257,52.6612478 27.8111257,52.1752293 L27.8111257,13.6177632 C27.8111257,13.1317447 28.2049159,12.737295 28.6940635,12.737295 L37.7547705,12.737295 C38.2421522,12.737295 38.6377083,13.1317447 38.6377083,13.6177632 L38.6377083,52.1752293 C38.6377083,52.6612478 38.2421522,53.0556975 37.7547705,53.0556975 L37.7547705,53.0556975 L37.7547705,53.0556975 Z M29.5770012,51.294761 L36.8718328,51.294761 L36.8718328,14.4982315 L29.5770012,14.4982315 L29.5770012,51.294761 L29.5770012,51.294761 Z" id="Fill-3" fill="#FFFFFF"></path>
                                <path d="M32.9515892,3.97135297 L34.826949,0.727707897 L36.9018527,1.92162286 L35.0229612,5.16350699 L38.7807442,5.16350699 L38.7807442,7.55309785 L35.0229612,7.55309785 L36.9018527,10.7967429 L34.826949,11.9924188 L32.9515892,8.74877375 L31.5671429,6.36094383 L32.9515892,3.97135297" id="Fill-4" fill="#99CC00"></path>
                                <path d="M32.9515892,3.97135297 L31.0726977,0.727707897 L28.997794,1.92162286 L30.8731538,5.16350699 L27.1206684,5.16350699 L27.1206684,7.55309785 L30.8731538,7.55309785 L28.997794,10.7967429 L31.0726977,11.9924188 L32.9515892,8.74877375 L34.3325039,6.36094383 L32.9515892,3.97135297" id="Fill-5" fill="#6633CC"></path>
                            </g>
                        </g>
                    </g>
                </g>
            </g>
        </g>
    </g>
</svg>