<?xml version="1.0" encoding="UTF-8" standalone="no"?>
<svg width="180px" height="180px" viewBox="0 0 180 180" version="1.1" xmlns="http://www.w3.org/2000/svg" xmlns:xlink="http://www.w3.org/1999/xlink" xmlns:sketch="http://www.bohemiancoding.com/sketch/ns">
    <!-- Generator: Sketch 3.3.3 (12081) - http://www.bohemiancoding.com/sketch -->
    <title>Oval-1-+-Group</title>
    <desc>Created with Sketch.</desc>
    <defs></defs>
    <g id="Page-1" stroke="none" stroke-width="1" fill="none" fill-rule="evenodd" sketch:type="MSPage">
        <g id="retirement-white" sketch:type="MSLayerGroup">
            <g id="Welcome" sketch:type="MSShapeGroup">
                <g id="Question1_Desktop">
                    <g id="Oval-1-+-Group">
                        <path d="M90,179.982764 C139.705627,179.982764 180,139.69225 180,89.9913819 C180,40.2905141 139.705627,0 90,0 C40.2943725,0 0,40.2905141 0,89.9913819 C0,139.69225 40.2943725,179.982764 90,179.982764 L90,179.982764 Z" id="Oval-1" fill="#FFFFFF"></path>
                        <g id="Group" transform="translate(41.750000, 54.900000)">
                            <path d="M29.9878823,70.3853814 C29.5115713,70.3853814 29.125,69.9991723 29.125,69.5233074 L29.125,64.987074 C29.125,64.509485 29.5115713,64.125 29.9878823,64.125 C30.4641933,64.125 30.8507646,64.509485 30.8507646,64.987074 L30.8507646,69.5233074 C30.8507646,69.9991723 30.4641933,70.3853814 29.9878823,70.3853814" id="Fill-5" fill="#333752"></path>
                            <path d="M21.9711402,36.9030041 C21.8900292,36.9030041 21.8071925,36.8909351 21.7278073,36.8685211 C21.3757514,36.7633481 21.1255155,36.447829 21.1099836,36.0805855 C19.9813336,11.0942325 42.7320879,3.93901827 42.9616146,3.87005235 C46.2578249,2.89590872 51.0330155,2.77004591 57.1629312,3.49418808 C57.6357907,3.54936082 57.9757663,3.97867367 57.9170903,4.45109023 C57.8618659,4.92523093 57.4217959,5.26488809 56.9610168,5.20626706 C51.0640792,4.51143541 46.5201411,4.61833258 43.4551833,5.52178614 C42.6009298,5.78040834 23.0221308,11.9838929 22.7960556,33.8857451 C25.4088632,31.4546964 31.3058007,27.5443287 39.982945,30.8029684 C41.7760143,28.6270937 49.1312229,20.8218756 59.8827362,24.4925867 C61.5515505,22.8736117 68.035248,17.1580611 75.7252549,18.170136 C74.4257542,16.0046061 71.5454531,12.0011344 66.5873315,8.96146143 C66.1800511,8.71145996 66.0540703,8.18042238 66.3043061,7.77524759 C66.5510905,7.36662451 67.0843517,7.24248586 67.4899064,7.49076317 C75.0832705,12.1494111 78.0239733,18.7563463 78.1465026,19.0356583 C78.2776607,19.3408325 78.224162,19.6942828 78.0067157,19.9442843 C77.7875436,20.1960099 77.4441164,20.2994588 77.12485,20.2115272 C68.5909442,17.8632376 60.8163748,25.9977679 60.7369896,26.0788029 C60.5005599,26.3322526 60.1295205,26.41846 59.8068025,26.2960455 C48.3615319,22.0339517 41.0460159,32.2322871 40.971808,32.335736 C40.7405556,32.6667724 40.3108402,32.789187 39.9380751,32.6391861 C28.8828272,28.1201941 22.9220364,36.1978276 22.6735263,36.5426572 C22.5095787,36.7719689 22.243811,36.9030041 21.9711402,36.9030041" id="Fill-1" fill="#333752"></path>
                            <path d="M40.2642446,32.7029796 C39.8638672,32.7029796 39.5066339,32.4236676 39.4203457,32.0167686 C35.130095,11.5804423 42.4352564,4.75109198 42.7476198,4.47178 C42.9892268,4.25453735 43.3274767,4.19074388 43.6312112,4.30626179 C44.073007,4.4752283 54.5242372,8.61490767 60.9147434,25.1787976 C61.0838683,25.6236278 60.8629705,26.1219066 60.4177232,26.2943214 C59.9811048,26.465012 59.4771815,26.2443211 59.3028793,25.7994909 C53.9927017,12.0304449 45.6969514,7.20972705 43.5414715,6.15627261 C42.1832948,7.83214448 37.6031156,14.9649448 41.1098692,31.6633183 C41.2082378,32.1288383 40.9096805,32.5857375 40.4419983,32.6840139 C40.3833223,32.696083 40.3229206,32.7029796 40.2642446,32.7029796" id="Fill-2" fill="#333752"></path>
                            <path d="M57.5063584,56.6082917 C57.1266902,56.6082917 56.7798115,56.3582903 56.6745399,55.9755294 L48.2855983,25.4891443 C48.1596175,25.0305209 48.4305625,24.5563802 48.8896159,24.4287932 C49.3572981,24.3063787 49.8249803,24.5718975 49.9509611,25.032245 L58.3381769,55.5186302 C58.4658835,55.9772536 58.1932127,56.4513943 57.7358851,56.5772571 C57.6582257,56.599671 57.582292,56.6082917 57.5063584,56.6082917" id="Fill-3" fill="#333752"></path>
                            <path d="M80.9250209,70.6637641 C80.4469841,70.6637641 80.0621386,70.2775549 80.0621386,69.8016901 L80.0621386,64.8257989 L30.2790081,64.8344197 C30.0753679,64.8344197 29.8769049,64.7620055 29.7215861,64.6292461 L1.30514675,40.5170361 C1.1222157,40.3635869 1.01349254,40.1411718 1.00141218,39.9032394 C0.987606068,39.6670311 1.07562006,39.4359953 1.23956769,39.2635805 L6.26326835,34.015274 C6.57908327,33.6876858 7.09508688,33.6600995 7.44196555,33.9514805 L32.5466627,55.0671212 L80.9250209,55.0671212 C81.4013319,55.0671212 81.7879032,55.4533303 81.7879032,55.9291952 L81.7879032,69.8016901 C81.7879032,70.2775549 81.4013319,70.6637641 80.9250209,70.6637641 L80.9250209,70.6637641 L80.9250209,70.6637641 Z M3.11892531,39.7946181 L30.594823,63.1102717 L80.0621386,63.1016509 L80.0621386,56.7912692 L32.2325736,56.7912692 C32.0289334,56.7912692 31.8321962,56.7205791 31.6751516,56.5895439 L6.95012265,35.7911464 L3.11892531,39.7946181 L3.11892531,39.7946181 Z" id="Fill-4" fill="#333752"></path>
                            <path d="M64.7718272,4.70109169 L67.1809945,3.46832586 L67.9679432,5.00454174 L65.5587759,6.23730757 L67.8333336,7.70800582 L66.8962434,9.15629015 L64.6199599,7.68904019 L64.4853503,10.3907801 L62.75786,10.3045727 L62.8976469,7.60283279 L62.9960155,5.61144184 L64.7718272,4.70109169" id="Fill-6" fill="#99CC00"></path>
                            <path d="M60.5782193,2.93383998 L59.444392,0.428652914 L57.846334,1.15279508 L58.9801613,3.65625799 L56.2430987,3.38556675 L56.0705223,5.13385284 L58.8093106,5.40281993 L57.2060753,7.63731575 L58.6315569,8.65973552 L60.2347922,6.4252397 L61.4134894,4.7804025 L60.5782193,2.93383998" id="Fill-7" fill="#6633CC"></path>
                        </g>
                    </g>
                </g>
            </g>
        </g>
    </g>
</svg>