<?xml version="1.0" encoding="UTF-8" standalone="no"?>
<svg width="180px" height="181px" viewBox="0 0 180 181" version="1.1" xmlns="http://www.w3.org/2000/svg" xmlns:xlink="http://www.w3.org/1999/xlink" xmlns:sketch="http://www.bohemiancoding.com/sketch/ns">
    <!-- Generator: Sketch 3.3.3 (12072) - http://www.bohemiancoding.com/sketch -->
    <title>3</title>
    <desc>Created with Sketch.</desc>
    <defs></defs>
    <g id="Page-1" stroke="none" stroke-width="1" fill="none" fill-rule="evenodd" sketch:type="MSPage">
        <g id="3" sketch:type="MSLayerGroup">
            <g id="Welcome" sketch:type="MSShapeGroup">
                <g id="Question9_Desktop1" transform="translate(0.000000, 0.500000)">
                    <g id="Oval-1-Copy-+-Group-Copy-+-Stroke-1-+-Stroke-2-+-Stroke-3">
                        <g id="Oval-1-Copy-+-Group-Copy" fill="#333752">
                            <circle id="Oval-1-Copy" cx="90" cy="90" r="90"></circle>
                        </g>
                        <g id="Stroke-1-+-Stroke-2-+-Stroke-3" transform="translate(55.000000, 55.000000)" stroke="#FFFFFF" stroke-width="1.5">
                            <path d="M34.6989325,0.478719008 C15.6253788,0.478719008 0.108712121,15.9936983 0.108712121,35.0655647 C0.108712121,54.1408058 15.6253788,69.6591598 34.6989325,69.6591598 C53.7707989,69.6591598 69.2891529,54.1408058 69.2891529,35.0655647 C69.2891529,15.9936983 53.7707989,0.478719008 34.6989325,0.478719008 L34.6989325,0.478719008 L34.6989325,0.478719008 Z" id="Stroke-1"></path>
                            <path d="M49.6469697,48.8139118 C48.1992424,46.6051997 46.2031336,47.5214187 43.935365,49.1969353 C41.5393595,50.9652548 41.0719697,51.9894628 38.2861915,49.8600551 C36.0032369,48.1136708 34.4272727,47.322314 31.9097796,49.2070592 C29.4445937,51.0546832 28.5519972,51.9169077 26.1121212,49.7807507 C23.7886708,47.744146 21.4669077,46.1968664 19.7525826,48.8139118" id="Stroke-2"></path>
                            <path d="M28.5131887,25.5608471 C29.8326791,26.8786501 29.8326791,29.0148072 28.5131887,30.3326102 C27.1953857,31.6487259 25.060916,31.6487259 23.7414256,30.3326102 C22.4236226,29.0148072 22.4236226,26.8786501 23.7414256,25.5608471 C25.060916,24.2430441 27.1953857,24.2430441 28.5131887,25.5608471 L28.5131887,25.5608471 L28.5131887,25.5608471 Z M45.6564394,25.5591598 C46.9759298,26.8786501 46.9759298,29.0148072 45.6564394,30.3326102 C44.3386364,31.6504132 42.2041667,31.6504132 40.8813017,30.3326102 C39.5668733,29.0148072 39.5668733,26.8786501 40.8813017,25.5591598 C42.2041667,24.2413567 44.3386364,24.2413567 45.6564394,25.5591598 L45.6564394,25.5591598 L45.6564394,25.5591598 Z" id="Stroke-3"></path>
                        </g>
                    </g>
                </g>
            </g>
        </g>
    </g>
</svg>