<?xml version="1.0" encoding="UTF-8" standalone="no"?>
<svg width="180px" height="181px" viewBox="0 0 180 181" version="1.1" xmlns="http://www.w3.org/2000/svg" xmlns:xlink="http://www.w3.org/1999/xlink" xmlns:sketch="http://www.bohemiancoding.com/sketch/ns">
    <!-- Generator: Sketch 3.3.3 (12072) - http://www.bohemiancoding.com/sketch -->
    <title>strongly-disagree-blue</title>
    <desc>Created with Sketch.</desc>
    <defs></defs>
    <g id="Page-1" stroke="none" stroke-width="1" fill="none" fill-rule="evenodd" sketch:type="MSPage">
        <g id="strongly-disagree-blue" sketch:type="MSLayerGroup">
            <g id="Welcome" sketch:type="MSShapeGroup">
                <g id="Question9_Desktop1" transform="translate(0.000000, 0.500000)">
                    <g id="Oval-1-+-Group-+-Stroke-1-+-Stroke-2">
                        <g id="Oval-1-+-Group" fill="#333752">
                            <path d="M90,179.982764 C139.705627,179.982764 180,139.69225 180,89.9913819 C180,40.2905141 139.705627,0 90,0 C40.2943725,0 0,40.2905141 0,89.9913819 C0,139.69225 40.2943725,179.982764 90,179.982764 L90,179.982764 Z" id="Oval-1"></path>
                        </g>
                        <g id="Stroke-1-+-Stroke-2" transform="translate(55.000000, 55.000000)" stroke="#FFFFFF" stroke-width="1.5">
                            <path d="M34.2933333,0.931666667 C15.4533333,0.931666667 0.128333333,16.2583333 0.128333333,35.0966667 C0.128333333,53.9366667 15.4533333,69.265 34.2933333,69.265 C53.1316667,69.265 68.46,53.9366667 68.46,35.0966667 C68.46,16.2583333 53.1316667,0.931666667 34.2933333,0.931666667 L34.2933333,0.931666667 L34.2933333,0.931666667 Z" id="Stroke-1"></path>
                            <path d="M44.805,52.1666667 C42.96,47.12 38.9533333,43.615 34.295,43.615 C29.6366667,43.615 25.6316667,47.12 23.7833333,52.1666667 M29.8116667,26.525 L19.545,26.3966667 M38.7783333,26.51 L49.045,26.4116667" id="Stroke-2"></path>
                        </g>
                    </g>
                </g>
            </g>
        </g>
    </g>
</svg>