<?xml version="1.0" encoding="UTF-8" standalone="no"?>
<svg width="180px" height="181px" viewBox="0 0 180 181" version="1.1" xmlns="http://www.w3.org/2000/svg" xmlns:xlink="http://www.w3.org/1999/xlink" xmlns:sketch="http://www.bohemiancoding.com/sketch/ns">
    <!-- Generator: Sketch 3.3.3 (12072) - http://www.bohemiancoding.com/sketch -->
    <title>strongly-agree-blue</title>
    <desc>Created with Sketch.</desc>
    <defs></defs>
    <g id="Page-1" stroke="none" stroke-width="1" fill="none" fill-rule="evenodd" sketch:type="MSPage">
        <g id="strongly-agree-blue" sketch:type="MSLayerGroup">
            <g id="Welcome" sketch:type="MSShapeGroup">
                <g id="Question9_Desktop1" transform="translate(0.000000, 0.500000)">
                    <g id="Oval-1-Copy-3-+-Group-+-Stroke-1-+-Stroke-2">
                        <g id="Oval-1-Copy-3-+-Group" fill="#333752">
                            <circle id="Oval-1-Copy-3" cx="90" cy="90" r="90"></circle>
                        </g>
                        <g id="Stroke-1-+-Stroke-2" transform="translate(56.000000, 55.000000)" stroke="#FFFFFF" stroke-width="1.5">
                            <path d="M34.8618046,52.5204206 C41.7696744,52.5204206 47.7118385,48.6177069 50.4493894,43.0013229 L19.2742198,43.0013229 C22.0101085,48.6177069 27.9522727,52.5204206 34.8618046,52.5204206 L34.8618046,52.5204206 L34.8618046,52.5204206 Z" id="Stroke-1"></path>
                            <path d="M34.8584803,0.929138399 C16.0729308,0.929138399 0.787856174,16.214213 0.787856174,35.0014247 C0.787856174,53.7902985 16.0729308,69.0770353 34.8584803,69.0770353 C53.645692,69.0770353 68.9340909,53.7902985 68.9340909,35.0014247 C68.9340909,16.214213 53.645692,0.929138399 34.8584803,0.929138399 L34.8584803,0.929138399 L34.8584803,0.929138399 Z M27.9805292,23.1370421 C29.9285617,25.0850746 29.9285617,28.2414858 27.9805292,30.1895183 C26.0324966,32.1342266 22.8760855,32.1342266 20.9280529,30.1895183 C18.9816825,28.2414858 18.9816825,25.0850746 20.9280529,23.1370421 C22.8760855,21.1906716 26.0324966,21.1906716 27.9805292,23.1370421 L27.9805292,23.1370421 L27.9805292,23.1370421 Z M48.7905699,23.1370421 C50.7386024,25.0850746 50.7386024,28.2414858 48.7905699,30.1895183 C46.8458616,32.1342266 43.6861262,32.1342266 41.7397558,30.1895183 C39.7917232,28.2414858 39.7917232,25.0850746 41.7397558,23.1370421 C43.6861262,21.1906716 46.8458616,21.1906716 48.7905699,23.1370421 L48.7905699,23.1370421 L48.7905699,23.1370421 Z" id="Stroke-2"></path>
                        </g>
                    </g>
                </g>
            </g>
        </g>
    </g>
</svg>