<?xml version="1.0" encoding="UTF-8" standalone="no"?>
<svg width="20px" height="20px" viewBox="0 0 20 20" version="1.1" xmlns="http://www.w3.org/2000/svg" xmlns:xlink="http://www.w3.org/1999/xlink" xmlns:sketch="http://www.bohemiancoding.com/sketch/ns">
    <!-- Generator: Sketch 3.3 (11970) - http://www.bohemiancoding.com/sketch -->
    <title>access-time</title>
    <desc>Created with Sketch.</desc>
    <defs></defs>
    <g id="Welcome" stroke="none" stroke-width="1" fill="none" fill-rule="evenodd" sketch:type="MSPage">
        <g id="Save_For_Later" sketch:type="MSArtboardGroup" transform="translate(-1307.000000, -32.000000)" fill="#FFFFFF">
            <g id="Save-for-Later-+-access-time-Copy-5" sketch:type="MSLayerGroup" transform="translate(1307.000000, 32.000000)">
                <g id="access-time" sketch:type="MSShapeGroup">
                    <path d="M10,0 C4.5,0 0,4.5 0,10 C0,15.5 4.5,20 10,20 C15.5,20 20,15.5 20,10 C20,4.5 15.5,0 10,0 L10,0 Z M10,18 C5.6,18 2,14.4 2,10 C2,5.6 5.6,2 10,2 C14.4,2 18,5.6 18,10 C18,14.4 14.4,18 10,18 Z M10.5,5 L9,5 L9,11 L14.2,14.2 L15,12.9 L10.5,10.2 L10.5,5 Z" id="Shape"></path>
                </g>
            </g>
        </g>
    </g>
</svg>