<?xml version="1.0" encoding="UTF-8" standalone="no"?>
<svg width="16px" height="16px" viewBox="0 0 16 16" version="1.1" xmlns="http://www.w3.org/2000/svg" xmlns:xlink="http://www.w3.org/1999/xlink" xmlns:sketch="http://www.bohemiancoding.com/sketch/ns">
    <!-- Generator: Sketch 3.3.3 (12072) - http://www.bohemiancoding.com/sketch -->
    <title>Shape</title>
    <desc>Created with Sketch.</desc>
    <defs></defs>
    <g id="Welcome" stroke="none" stroke-width="1" fill="none" fill-rule="evenodd" sketch:type="MSPage">
        <g id="Question1_3_Desktop" sketch:type="MSArtboardGroup" transform="translate(-887.000000, -37.000000)" fill="#DBDBDB">
            <g id="Header" sketch:type="MSLayerGroup">
                <g id="Call-Us-888-639-4353-+-Shape" transform="translate(887.000000, 37.000000)" sketch:type="MSShapeGroup">
                    <path d="M3.34404998,7.20542775 C4.55114814,9.61962405 6.62045925,11.6027139 9.03465556,12.8960333 L10.9315241,10.9991648 C11.190188,10.7405009 11.5350732,10.6542796 11.7937371,10.8267222 C12.7421713,11.1716074 13.7768269,11.34405 14.8977037,11.34405 C15.4150315,11.34405 15.7599167,11.6889352 15.7599167,12.2062629 L15.7599167,15.137787 C15.7599167,15.6551148 15.4150315,16 14.8977037,16 C6.79290185,16 0.240083307,9.44718146 0.240083307,1.34237958 C0.240083307,0.8250518 0.584968493,0.480166614 1.10229627,0.480166614 L4.12004165,0.480166614 C4.63736943,0.480166614 4.98225462,0.8250518 4.98225462,1.34237958 C4.98225462,2.37703514 5.15469721,3.4116907 5.4995824,4.44634626 C5.5858037,4.70501015 5.4995824,5.04989533 5.32713981,5.30855922 L3.34404998,7.20542775 L3.34404998,7.20542775 Z" id="Shape"></path>
                </g>
            </g>
        </g>
    </g>
</svg>